TITLE ""
FILE "LR_black_phrase_E_B03.mp3" MP3
  TRACK 01 AUDIO
    TITLE "LR_black_phrase_E_B03_001"
    INDEX 01 00:00:00
  TRACK 02 AUDIO
    TITLE "LR_black_phrase_E_B03_002"
    INDEX 01 00:00:14
  TRACK 03 AUDIO
    TITLE "LR_black_phrase_E_B03_003"
    INDEX 01 00:01:37
  TRACK 04 AUDIO
    TITLE "LR_black_phrase_E_B03_004"
    INDEX 01 00:01:67
  TRACK 05 AUDIO
    TITLE "LR_black_phrase_E_B03_005"
    INDEX 01 00:04:32
  TRACK 06 AUDIO
    TITLE "LR_black_phrase_E_B03_006"
    INDEX 01 00:05:11
  TRACK 07 AUDIO
    TITLE "LR_black_phrase_E_B03_007"
    INDEX 01 00:07:51
  TRACK 08 AUDIO
    TITLE "LR_black_phrase_E_B03_008"
    INDEX 01 00:08:59
  TRACK 09 AUDIO
    TITLE "LR_black_phrase_E_B03_009"
    INDEX 01 00:10:20
  TRACK 10 AUDIO
    TITLE "LR_black_phrase_E_B03_010"
    INDEX 01 00:10:50
  TRACK 11 AUDIO
    TITLE "LR_black_phrase_E_B03_011"
    INDEX 01 00:12:62
  TRACK 12 AUDIO
    TITLE "LR_black_phrase_E_B03_012"
    INDEX 01 00:13:44
  TRACK 13 AUDIO
    TITLE "LR_black_phrase_E_B03_013"
    INDEX 01 00:15:57
  TRACK 14 AUDIO
    TITLE "LR_black_phrase_E_B03_014"
    INDEX 01 00:16:68
  TRACK 15 AUDIO
    TITLE "LR_black_phrase_E_B03_015"
    INDEX 01 00:18:04
  TRACK 16 AUDIO
    TITLE "LR_black_phrase_E_B03_016"
    INDEX 01 00:18:36
  TRACK 17 AUDIO
    TITLE "LR_black_phrase_E_B03_017"
    INDEX 01 00:20:40
  TRACK 18 AUDIO
    TITLE "LR_black_phrase_E_B03_018"
    INDEX 01 00:21:20
  TRACK 19 AUDIO
    TITLE "LR_black_phrase_E_B03_019"
    INDEX 01 00:23:25
  TRACK 20 AUDIO
    TITLE "LR_black_phrase_E_B03_020"
    INDEX 01 00:24:30
  TRACK 21 AUDIO
    TITLE "LR_black_phrase_E_B03_021"
    INDEX 01 00:25:47
  TRACK 22 AUDIO
    TITLE "LR_black_phrase_E_B03_022"
    INDEX 01 00:26:02
  TRACK 23 AUDIO
    TITLE "LR_black_phrase_E_B03_023"
    INDEX 01 00:28:16
  TRACK 24 AUDIO
    TITLE "LR_black_phrase_E_B03_024"
    INDEX 01 00:28:69
  TRACK 25 AUDIO
    TITLE "LR_black_phrase_E_B03_025"
    INDEX 01 00:31:09
  TRACK 26 AUDIO
    TITLE "LR_black_phrase_E_B03_026"
    INDEX 01 00:32:06
  TRACK 27 AUDIO
    TITLE "LR_black_phrase_E_B03_027"
    INDEX 01 00:33:33
  TRACK 28 AUDIO
    TITLE "LR_black_phrase_E_B03_028"
    INDEX 01 00:33:63
  TRACK 29 AUDIO
    TITLE "LR_black_phrase_E_B03_029"
    INDEX 01 00:36:39
  TRACK 30 AUDIO
    TITLE "LR_black_phrase_E_B03_030"
    INDEX 01 00:37:09
  TRACK 31 AUDIO
    TITLE "LR_black_phrase_E_B03_031"
    INDEX 01 00:39:61
  TRACK 32 AUDIO
    TITLE "LR_black_phrase_E_B03_032"
    INDEX 01 00:40:57
  TRACK 33 AUDIO
    TITLE "LR_black_phrase_E_B03_033"
    INDEX 01 00:42:09
  TRACK 34 AUDIO
    TITLE "LR_black_phrase_E_B03_034"
    INDEX 01 00:42:42
  TRACK 35 AUDIO
    TITLE "LR_black_phrase_E_B03_035"
    INDEX 01 00:44:23
  TRACK 36 AUDIO
    TITLE "LR_black_phrase_E_B03_036"
    INDEX 01 00:44:66
  TRACK 37 AUDIO
    TITLE "LR_black_phrase_E_B03_037"
    INDEX 01 00:46:48
  TRACK 38 AUDIO
    TITLE "LR_black_phrase_E_B03_038"
    INDEX 01 00:47:47
  TRACK 39 AUDIO
    TITLE "LR_black_phrase_E_B03_039"
    INDEX 01 00:48:64
  TRACK 40 AUDIO
    TITLE "LR_black_phrase_E_B03_040"
    INDEX 01 00:49:17
  TRACK 41 AUDIO
    TITLE "LR_black_phrase_E_B03_041"
    INDEX 01 00:51:31
  TRACK 42 AUDIO
    TITLE "LR_black_phrase_E_B03_042"
    INDEX 01 00:52:09
  TRACK 43 AUDIO
    TITLE "LR_black_phrase_E_B03_043"
    INDEX 01 00:54:24
  TRACK 44 AUDIO
    TITLE "LR_black_phrase_E_B03_044"
    INDEX 01 00:55:27
  TRACK 45 AUDIO
    TITLE "LR_black_phrase_E_B03_045"
    INDEX 01 00:56:50
  TRACK 46 AUDIO
    TITLE "LR_black_phrase_E_B03_046"
    INDEX 01 00:57:04
  TRACK 47 AUDIO
    TITLE "LR_black_phrase_E_B03_047"
    INDEX 01 00:59:27
  TRACK 48 AUDIO
    TITLE "LR_black_phrase_E_B03_048"
    INDEX 01 01:00:05
  TRACK 49 AUDIO
    TITLE "LR_black_phrase_E_B03_049"
    INDEX 01 01:02:25
  TRACK 50 AUDIO
    TITLE "LR_black_phrase_E_B03_050"
    INDEX 01 01:03:30
  TRACK 51 AUDIO
    TITLE "LR_black_phrase_E_B03_051"
    INDEX 01 01:04:44
  TRACK 52 AUDIO
    TITLE "LR_black_phrase_E_B03_052"
    INDEX 01 01:04:73
  TRACK 53 AUDIO
    TITLE "LR_black_phrase_E_B03_053"
    INDEX 01 01:06:62
  TRACK 54 AUDIO
    TITLE "LR_black_phrase_E_B03_054"
    INDEX 01 01:07:42
  TRACK 55 AUDIO
    TITLE "LR_black_phrase_E_B03_055"
    INDEX 01 01:09:33
  TRACK 56 AUDIO
    TITLE "LR_black_phrase_E_B03_056"
    INDEX 01 01:10:34
  TRACK 57 AUDIO
    TITLE "LR_black_phrase_E_B03_057"
    INDEX 01 01:11:48
  TRACK 58 AUDIO
    TITLE "LR_black_phrase_E_B03_058"
    INDEX 01 01:12:00
  TRACK 59 AUDIO
    TITLE "LR_black_phrase_E_B03_059"
    INDEX 01 01:15:12
  TRACK 60 AUDIO
    TITLE "LR_black_phrase_E_B03_060"
    INDEX 01 01:15:59
  TRACK 61 AUDIO
    TITLE "LR_black_phrase_E_B03_061"
    INDEX 01 01:18:69
  TRACK 62 AUDIO
    TITLE "LR_black_phrase_E_B03_062"
    INDEX 01 01:19:71
  TRACK 63 AUDIO
    TITLE "LR_black_phrase_E_B03_063"
    INDEX 01 01:20:72
  TRACK 64 AUDIO
    TITLE "LR_black_phrase_E_B03_064"
    INDEX 01 01:21:26
  TRACK 65 AUDIO
    TITLE "LR_black_phrase_E_B03_065"
    INDEX 01 01:23:57
  TRACK 66 AUDIO
    TITLE "LR_black_phrase_E_B03_066"
    INDEX 01 01:24:33
  TRACK 67 AUDIO
    TITLE "LR_black_phrase_E_B03_067"
    INDEX 01 01:26:63
  TRACK 68 AUDIO
    TITLE "LR_black_phrase_E_B03_068"
    INDEX 01 01:27:62
  TRACK 69 AUDIO
    TITLE "LR_black_phrase_E_B03_069"
    INDEX 01 01:29:20
  TRACK 70 AUDIO
    TITLE "LR_black_phrase_E_B03_070"
    INDEX 01 01:29:49
  TRACK 71 AUDIO
    TITLE "LR_black_phrase_E_B03_071"
    INDEX 01 01:32:12
  TRACK 72 AUDIO
    TITLE "LR_black_phrase_E_B03_072"
    INDEX 01 01:32:61
  TRACK 73 AUDIO
    TITLE "LR_black_phrase_E_B03_073"
    INDEX 01 01:35:23
  TRACK 74 AUDIO
    TITLE "LR_black_phrase_E_B03_074"
    INDEX 01 01:36:24
  TRACK 75 AUDIO
    TITLE "LR_black_phrase_E_B03_075"
    INDEX 01 01:37:37
  TRACK 76 AUDIO
    TITLE "LR_black_phrase_E_B03_076"
    INDEX 01 01:37:67
  TRACK 77 AUDIO
    TITLE "LR_black_phrase_E_B03_077"
    INDEX 01 01:39:48
  TRACK 78 AUDIO
    TITLE "LR_black_phrase_E_B03_078"
    INDEX 01 01:40:28
  TRACK 79 AUDIO
    TITLE "LR_black_phrase_E_B03_079"
    INDEX 01 01:42:07
  TRACK 80 AUDIO
    TITLE "LR_black_phrase_E_B03_080"
    INDEX 01 01:43:12
  TRACK 81 AUDIO
    TITLE "LR_black_phrase_E_B03_081"
    INDEX 01 01:44:29
  TRACK 82 AUDIO
    TITLE "LR_black_phrase_E_B03_082"
    INDEX 01 01:44:57
  TRACK 83 AUDIO
    TITLE "LR_black_phrase_E_B03_083"
    INDEX 01 01:47:16
  TRACK 84 AUDIO
    TITLE "LR_black_phrase_E_B03_084"
    INDEX 01 01:47:73
  TRACK 85 AUDIO
    TITLE "LR_black_phrase_E_B03_085"
    INDEX 01 01:50:34
  TRACK 86 AUDIO
    TITLE "LR_black_phrase_E_B03_086"
    INDEX 01 01:51:37
  TRACK 87 AUDIO
    TITLE "LR_black_phrase_E_B03_087"
    INDEX 01 01:52:43
  TRACK 88 AUDIO
    TITLE "LR_black_phrase_E_B03_088"
    INDEX 01 01:52:72
  TRACK 89 AUDIO
    TITLE "LR_black_phrase_E_B03_089"
    INDEX 01 01:54:53
  TRACK 90 AUDIO
    TITLE "LR_black_phrase_E_B03_090"
    INDEX 01 01:55:33
  TRACK 91 AUDIO
    TITLE "LR_black_phrase_E_B03_091"
    INDEX 01 01:57:14
  TRACK 92 AUDIO
    TITLE "LR_black_phrase_E_B03_092"
    INDEX 01 01:58:12
  TRACK 93 AUDIO
    TITLE "LR_black_phrase_E_B03_093"
    INDEX 01 01:59:45
  TRACK 94 AUDIO
    TITLE "LR_black_phrase_E_B03_094"
    INDEX 01 02:00:01
  TRACK 95 AUDIO
    TITLE "LR_black_phrase_E_B03_095"
    INDEX 01 02:02:35
  TRACK 96 AUDIO
    TITLE "LR_black_phrase_E_B03_096"
    INDEX 01 02:03:17
  TRACK 97 AUDIO
    TITLE "LR_black_phrase_E_B03_097"
    INDEX 01 02:05:53
  TRACK 98 AUDIO
    TITLE "LR_black_phrase_E_B03_098"
    INDEX 01 02:06:60
  TRACK 99 AUDIO
    TITLE "LR_black_phrase_E_B03_099"
    INDEX 01 02:07:72
  TRACK 100 AUDIO
    TITLE "LR_black_phrase_E_B03_100"
    INDEX 01 02:08:20
  TRACK 101 AUDIO
    TITLE "LR_black_phrase_E_B03_101"
    INDEX 01 02:10:64
  TRACK 102 AUDIO
    TITLE "LR_black_phrase_E_B03_102"
    INDEX 01 02:11:40
  TRACK 103 AUDIO
    TITLE "LR_black_phrase_E_B03_103"
    INDEX 01 02:14:09
  TRACK 104 AUDIO
    TITLE "LR_black_phrase_E_B03_104"
    INDEX 01 02:15:06
  TRACK 105 AUDIO
    TITLE "LR_black_phrase_E_B03_105"
    INDEX 01 02:16:37
  TRACK 106 AUDIO
    TITLE "LR_black_phrase_E_B03_106"
    INDEX 01 02:16:67
  TRACK 107 AUDIO
    TITLE "LR_black_phrase_E_B03_107"
    INDEX 01 02:18:62
  TRACK 108 AUDIO
    TITLE "LR_black_phrase_E_B03_108"
    INDEX 01 02:19:40
  TRACK 109 AUDIO
    TITLE "LR_black_phrase_E_B03_109"
    INDEX 01 02:21:34
  TRACK 110 AUDIO
    TITLE "LR_black_phrase_E_B03_110"
    INDEX 01 02:22:42
  TRACK 111 AUDIO
    TITLE "LR_black_phrase_E_B03_111"
    INDEX 01 02:23:65
  TRACK 112 AUDIO
    TITLE "LR_black_phrase_E_B03_112"
    INDEX 01 02:24:17
  TRACK 113 AUDIO
    TITLE "LR_black_phrase_E_B03_113"
    INDEX 01 02:26:34
  TRACK 114 AUDIO
    TITLE "LR_black_phrase_E_B03_114"
    INDEX 01 02:27:12
  TRACK 115 AUDIO
    TITLE "LR_black_phrase_E_B03_115"
    INDEX 01 02:29:28
  TRACK 116 AUDIO
    TITLE "LR_black_phrase_E_B03_116"
    INDEX 01 02:30:31
  TRACK 117 AUDIO
    TITLE "LR_black_phrase_E_B03_117"
    INDEX 01 02:31:51
  TRACK 118 AUDIO
    TITLE "LR_black_phrase_E_B03_118"
    INDEX 01 02:32:05
  TRACK 119 AUDIO
    TITLE "LR_black_phrase_E_B03_119"
    INDEX 01 02:33:63
  TRACK 120 AUDIO
    TITLE "LR_black_phrase_E_B03_120"
    INDEX 01 02:34:43
  TRACK 121 AUDIO
    TITLE "LR_black_phrase_E_B03_121"
    INDEX 01 02:36:26
  TRACK 122 AUDIO
    TITLE "LR_black_phrase_E_B03_122"
    INDEX 01 02:37:30
  TRACK 123 AUDIO
    TITLE "LR_black_phrase_E_B03_123"
    INDEX 01 02:38:43
  TRACK 124 AUDIO
    TITLE "LR_black_phrase_E_B03_124"
    INDEX 01 02:38:72
  TRACK 125 AUDIO
    TITLE "LR_black_phrase_E_B03_125"
    INDEX 01 02:41:25
  TRACK 126 AUDIO
    TITLE "LR_black_phrase_E_B03_126"
    INDEX 01 02:42:05
  TRACK 127 AUDIO
    TITLE "LR_black_phrase_E_B03_127"
    INDEX 01 02:44:32
  TRACK 128 AUDIO
    TITLE "LR_black_phrase_E_B03_128"
    INDEX 01 02:45:31
  TRACK 129 AUDIO
    TITLE "LR_black_phrase_E_B03_129"
    INDEX 01 02:46:48
  TRACK 130 AUDIO
    TITLE "LR_black_phrase_E_B03_130"
    INDEX 01 02:46:70
  TRACK 131 AUDIO
    TITLE "LR_black_phrase_E_B03_131"
    INDEX 01 02:49:17
  TRACK 132 AUDIO
    TITLE "LR_black_phrase_E_B03_132"
    INDEX 01 02:49:62
  TRACK 133 AUDIO
    TITLE "LR_black_phrase_E_B03_133"
    INDEX 01 02:52:10
  TRACK 134 AUDIO
    TITLE "LR_black_phrase_E_B03_134"
    INDEX 01 02:53:05
  TRACK 135 AUDIO
    TITLE "LR_black_phrase_E_B03_135"
    INDEX 01 02:54:26
  TRACK 136 AUDIO
    TITLE "LR_black_phrase_E_B03_136"
    INDEX 01 02:54:52
  TRACK 137 AUDIO
    TITLE "LR_black_phrase_E_B03_137"
    INDEX 01 02:56:74
  TRACK 138 AUDIO
    TITLE "LR_black_phrase_E_B03_138"
    INDEX 01 02:57:42
  TRACK 139 AUDIO
    TITLE "LR_black_phrase_E_B03_139"
    INDEX 01 02:59:63
  TRACK 140 AUDIO
    TITLE "LR_black_phrase_E_B03_140"
    INDEX 01 03:00:58
  TRACK 141 AUDIO
    TITLE "LR_black_phrase_E_B03_141"
    INDEX 01 03:02:00
  TRACK 142 AUDIO
    TITLE "LR_black_phrase_E_B03_142"
    INDEX 01 03:02:20
  TRACK 143 AUDIO
    TITLE "LR_black_phrase_E_B03_143"
    INDEX 01 03:04:13
  TRACK 144 AUDIO
    TITLE "LR_black_phrase_E_B03_144"
    INDEX 01 03:04:58
  TRACK 145 AUDIO
    TITLE "LR_black_phrase_E_B03_145"
    INDEX 01 03:06:51
  TRACK 146 AUDIO
    TITLE "LR_black_phrase_E_B03_146"
    INDEX 01 03:07:50
  TRACK 147 AUDIO
    TITLE "LR_black_phrase_E_B03_147"
    INDEX 01 03:08:67
  TRACK 148 AUDIO
    TITLE "LR_black_phrase_E_B03_148"
    INDEX 01 03:09:22
  TRACK 149 AUDIO
    TITLE "LR_black_phrase_E_B03_149"
    INDEX 01 03:11:50
  TRACK 150 AUDIO
    TITLE "LR_black_phrase_E_B03_150"
    INDEX 01 03:12:30
  TRACK 151 AUDIO
    TITLE "LR_black_phrase_E_B03_151"
    INDEX 01 03:14:58
  TRACK 152 AUDIO
    TITLE "LR_black_phrase_E_B03_152"
    INDEX 01 03:15:64
  TRACK 153 AUDIO
    TITLE "LR_black_phrase_E_B03_153"
    INDEX 01 03:17:06
  TRACK 154 AUDIO
    TITLE "LR_black_phrase_E_B03_154"
    INDEX 01 03:17:25
  TRACK 155 AUDIO
    TITLE "LR_black_phrase_E_B03_155"
    INDEX 01 03:18:72
  TRACK 156 AUDIO
    TITLE "LR_black_phrase_E_B03_156"
    INDEX 01 03:19:44
  TRACK 157 AUDIO
    TITLE "LR_black_phrase_E_B03_157"
    INDEX 01 03:21:13
  TRACK 158 AUDIO
    TITLE "LR_black_phrase_E_B03_158"
    INDEX 01 03:22:20
  TRACK 159 AUDIO
    TITLE "LR_black_phrase_E_B03_159"
    INDEX 01 03:23:30
  TRACK 160 AUDIO
    TITLE "LR_black_phrase_E_B03_160"
    INDEX 01 03:23:59
  TRACK 161 AUDIO
    TITLE "LR_black_phrase_E_B03_161"
    INDEX 01 03:25:52
  TRACK 162 AUDIO
    TITLE "LR_black_phrase_E_B03_162"
    INDEX 01 03:26:32
  TRACK 163 AUDIO
    TITLE "LR_black_phrase_E_B03_163"
    INDEX 01 03:28:25
  TRACK 164 AUDIO
    TITLE "LR_black_phrase_E_B03_164"
    INDEX 01 03:29:24
  TRACK 165 AUDIO
    TITLE "LR_black_phrase_E_B03_165"
    INDEX 01 03:30:47
  TRACK 166 AUDIO
    TITLE "LR_black_phrase_E_B03_166"
    INDEX 01 03:30:67
  TRACK 167 AUDIO
    TITLE "LR_black_phrase_E_B03_167"
    INDEX 01 03:33:36
  TRACK 168 AUDIO
    TITLE "LR_black_phrase_E_B03_168"
    INDEX 01 03:34:04
  TRACK 169 AUDIO
    TITLE "LR_black_phrase_E_B03_169"
    INDEX 01 03:36:48
  TRACK 170 AUDIO
    TITLE "LR_black_phrase_E_B03_170"
    INDEX 01 03:37:42
  TRACK 171 AUDIO
    TITLE "LR_black_phrase_E_B03_171"
    INDEX 01 03:38:63
  TRACK 172 AUDIO
    TITLE "LR_black_phrase_E_B03_172"
    INDEX 01 03:39:13
  TRACK 173 AUDIO
    TITLE "LR_black_phrase_E_B03_173"
    INDEX 01 03:41:55
  TRACK 174 AUDIO
    TITLE "LR_black_phrase_E_B03_174"
    INDEX 01 03:42:27
  TRACK 175 AUDIO
    TITLE "LR_black_phrase_E_B03_175"
    INDEX 01 03:44:69
  TRACK 176 AUDIO
    TITLE "LR_black_phrase_E_B03_176"
    INDEX 01 03:45:65
  TRACK 177 AUDIO
    TITLE "LR_black_phrase_E_B03_177"
    INDEX 01 03:47:03
  TRACK 178 AUDIO
    TITLE "LR_black_phrase_E_B03_178"
    INDEX 01 03:47:22
  TRACK 179 AUDIO
    TITLE "LR_black_phrase_E_B03_179"
    INDEX 01 03:49:11
  TRACK 180 AUDIO
    TITLE "LR_black_phrase_E_B03_180"
    INDEX 01 03:49:57
  TRACK 181 AUDIO
    TITLE "LR_black_phrase_E_B03_181"
    INDEX 01 03:51:46
